<svg id="visual" viewBox="0 0 900 600" width="900" height="600" xmlns="http://www.w3.org/2000/svg" xmlns:xlink="http://www.w3.org/1999/xlink" version="1.1"><path d="M0 394L21.5 395.7C43 397.3 86 400.7 128.8 397.8C171.7 395 214.3 386 257.2 391.8C300 397.7 343 418.3 385.8 423.2C428.7 428 471.3 417 514.2 402.8C557 388.7 600 371.3 642.8 366.2C685.7 361 728.3 368 771.2 383.5C814 399 857 423 878.5 435L900 447L900 601L878.5 601C857 601 814 601 771.2 601C728.3 601 685.7 601 642.8 601C600 601 557 601 514.2 601C471.3 601 428.7 601 385.8 601C343 601 300 601 257.2 601C214.3 601 171.7 601 128.8 601C86 601 43 601 21.5 601L0 601Z" fill="#f7770f"></path><path d="M0 422L21.5 429.2C43 436.3 86 450.7 128.8 460.2C171.7 469.7 214.3 474.3 257.2 466.5C300 458.7 343 438.3 385.8 425.5C428.7 412.7 471.3 407.3 514.2 410.5C557 413.7 600 425.3 642.8 425C685.7 424.7 728.3 412.3 771.2 414.7C814 417 857 434 878.5 442.5L900 451L900 601L878.5 601C857 601 814 601 771.2 601C728.3 601 685.7 601 642.8 601C600 601 557 601 514.2 601C471.3 601 428.7 601 385.8 601C343 601 300 601 257.2 601C214.3 601 171.7 601 128.8 601C86 601 43 601 21.5 601L0 601Z" fill="#ee5a33"></path><path d="M0 443L21.5 444C43 445 86 447 128.8 451.3C171.7 455.7 214.3 462.3 257.2 466.2C300 470 343 471 385.8 471.8C428.7 472.7 471.3 473.3 514.2 478C557 482.7 600 491.3 642.8 492.5C685.7 493.7 728.3 487.3 771.2 478C814 468.7 857 456.3 878.5 450.2L900 444L900 601L878.5 601C857 601 814 601 771.2 601C728.3 601 685.7 601 642.8 601C600 601 557 601 514.2 601C471.3 601 428.7 601 385.8 601C343 601 300 601 257.2 601C214.3 601 171.7 601 128.8 601C86 601 43 601 21.5 601L0 601Z" fill="#dd4247"></path><path d="M0 524L21.5 526.8C43 529.7 86 535.3 128.8 538C171.7 540.7 214.3 540.3 257.2 537.3C300 534.3 343 528.7 385.8 525.8C428.7 523 471.3 523 514.2 523.3C557 523.7 600 524.3 642.8 524.3C685.7 524.3 728.3 523.7 771.2 524.2C814 524.7 857 526.3 878.5 527.2L900 528L900 601L878.5 601C857 601 814 601 771.2 601C728.3 601 685.7 601 642.8 601C600 601 557 601 514.2 601C471.3 601 428.7 601 385.8 601C343 601 300 601 257.2 601C214.3 601 171.7 601 128.8 601C86 601 43 601 21.5 601L0 601Z" fill="#c53155"></path><path d="M0 530L21.5 531.2C43 532.3 86 534.7 128.8 540.5C171.7 546.3 214.3 555.7 257.2 561.7C300 567.7 343 570.3 385.8 569.8C428.7 569.3 471.3 565.7 514.2 560.7C557 555.7 600 549.3 642.8 551.2C685.7 553 728.3 563 771.2 565.3C814 567.7 857 562.3 878.5 559.7L900 557L900 601L878.5 601C857 601 814 601 771.2 601C728.3 601 685.7 601 642.8 601C600 601 557 601 514.2 601C471.3 601 428.7 601 385.8 601C343 601 300 601 257.2 601C214.3 601 171.7 601 128.8 601C86 601 43 601 21.5 601L0 601Z" fill="#a8295e"></path></svg>